<?xml version="1.0" encoding="UTF-8"?>
<svg width="192px" height="151px" viewBox="0 0 192 151" version="1.1" xmlns="http://www.w3.org/2000/svg" xmlns:xlink="http://www.w3.org/1999/xlink">
    <!-- Generator: Sketch 58 (84663) - https://sketch.com -->
    <title>Tetris </title>
    <desc>Created with Sketch.</desc>
    <g id="Tetris-" stroke="none" stroke-width="1" fill="none" fill-rule="evenodd">
        <g id="Group" transform="translate(2.000000, 10.000000)">
            <path d="M182.952,0 C185.395308,-1.56394808e-14 187.376,1.98069227 187.376,4.424 L187.376,60.872 C187.376,63.3153077 185.395308,65.296 182.952,65.296 L126.448,65.296 L126.448,126.056 C126.448,128.530236 124.442236,130.536 121.968,130.536 L65.352,130.536 C62.8777643,130.536 60.872,128.530236 60.872,126.056 L60.871,65.296 L4.424,65.296 C1.98069227,65.296 -6.80620846e-15,63.3153077 0,60.872 L0,4.424 C-2.99218899e-16,1.98069227 1.98069227,4.00154203e-15 4.424,0 L182.952,0 Z" id="Combined-Shape" fill="#9292C9"></path>
            <path d="M180.096,2.24 C182.879515,2.24 185.136,4.49648486 185.136,7.28 L185.136,57.288 C185.136,60.0715151 182.879515,62.328 180.096,62.328 L124.152,62.328 L124.152,123.2 C124.152,125.983515 121.895515,128.24 119.112,128.24 L68.32,128.24 C65.5364849,128.24 63.28,125.983515 63.28,123.2 L63.28,62.328 L7.28,62.328 C4.49648486,62.328 2.24,60.0715151 2.24,57.288 L2.24,7.28 C2.24,4.49648486 4.49648486,2.24 7.28,2.24 L180.096,2.24 Z" id="Combined-Shape" fill="#010154"></path>
            <rect id="Rectangle" fill="#9292C9" x="136.472" y="5.096" width="11.48" height="11.312"></rect>
            <path d="M5.712,17.36 L5.712,5.096 L37.408,5.096 L37.408,17.36 L27.776,17.36 L27.776,63.616 L15.344,63.616 L15.344,17.36 L5.712,17.36 Z" id="Combined-Shape" fill="#9292C9"></path>
            <path d="M67.536,17.36 L67.536,5.096 L99.232,5.096 L99.232,17.36 L89.6,17.36 L89.6,63.616 L77.168,63.616 L77.168,17.36 L67.536,17.36 Z" id="Combined-Shape" fill="#9292C9"></path>
            <path d="M38.472,63.616 L38.472,5.096 L66.752,5.096 L61.1507826,17.528 L49.896,17.528 L49.896,23.184 L61.152,23.184 L55.4978233,33.88 L49.896,33.88 L49.896,51.184 L68.659678,51.184 L74.704,63.616 L49.896,63.616 L38.472,63.616 Z" id="Combined-Shape" fill="#9292C9"></path>
            <polygon id="Path" fill="#9292C9" points="111.483346 12.5400483 111.483346 63.616 100.296 63.616 100.296 5.096 131.238563 5.096 120.487796 23.4616082 127.036487 23.4616082 147.392 63.616 133.694322 63.616 113.502526 23.4616082 119.66921 12.5400483"></polygon>
            <polygon id="Path-3" fill="#9292C9" points="136.472 17.808 147.952 17.808 147.952 63.616 136.472 40.712"></polygon>
            <path d="M149.016,50.701614 L149.016,63.616 L180.712,63.616 L180.712,49.8370526 C180.586367,49.0162456 180.446297,48.403848 180.291788,47.9998596 C180.137279,47.5958713 179.857138,47.1095555 179.451364,46.5409123 L162.162636,15.3086316 C162.250353,14.7519476 162.350403,14.3917137 162.462788,14.2279298 C162.901245,13.5889428 163.423273,13.4714386 163.423273,13.4714386 C163.423273,13.4714386 166.965061,13.4714386 174.048636,13.4714386 C174.630924,13.7671623 175.031126,14.0193261 175.249242,14.2279298 C175.467359,14.4365336 175.70748,14.7967675 175.969606,15.3086316 L180.712,5.096 L149.016,5.096 L149.016,16.2272281 L150.93697,20.1717895 L167.865515,50.701614 C167.722322,51.2073156 167.582251,51.5495379 167.445303,51.7282807 C167.308355,51.9070235 167.048224,52.0871405 166.664909,52.2686316 L151.717364,52.2686316 C151.180712,52.1078262 150.74049,51.9277092 150.396697,51.7282807 C150.052904,51.5288522 149.592672,51.18663 149.016,50.701614 Z" id="Path-4" fill="#9292C9"></path>
        </g>
    </g>
</svg>